<?xml version="1.0" standalone="no"?>
<!DOCTYPE svg PUBLIC "-//W3C//DTD SVG 20010904//EN"
 "http://www.w3.org/TR/2001/REC-SVG-20010904/DTD/svg10.dtd">
<svg version="1.0" xmlns="http://www.w3.org/2000/svg"
 width="256.000000pt" height="256.000000pt" viewBox="0 0 256.000000 256.000000"
 preserveAspectRatio="xMidYMid meet">
<metadata>
Created by potrace 1.14, written by Peter Selinger 2001-2017
</metadata>
<g transform="translate(0.000000,256.000000) scale(0.100000,-0.100000)"
fill="#000000" stroke="none">
<path d="M986 2519 c-600 -57 -819 -307 -845 -964 -33 -875 138 -1187 704
-1286 233 -40 672 -37 909 7 459 85 642 345 665 942 21 578 -46 879 -238 1073
-116 116 -256 177 -496 215 -121 19 -554 27 -699 13z m-73 -729 c3 -12 14 -20
27 -20 47 0 111 -54 95 -80 -10 -17 -26 -11 -56 21 -45 48 -64 37 -64 -40 l0
-63 50 -19 c62 -23 85 -50 85 -99 0 -50 -26 -80 -86 -100 -36 -12 -50 -22 -52
-38 -5 -30 -22 -28 -22 2 0 21 -6 25 -40 31 -45 8 -95 44 -103 74 -9 35 23 33
57 -4 22 -23 43 -35 60 -35 26 0 26 1 26 75 l0 74 -41 11 c-114 31 -119 168
-7 186 28 5 42 13 45 25 7 25 19 24 26 -1z m487 -515 c0 -13 -26 -15 -170 -15
-144 0 -170 2 -170 15 0 13 26 15 170 15 144 0 170 -2 170 -15z"/>
<path d="M833 1728 c-45 -22 -41 -78 7 -103 46 -24 50 -20 50 50 0 70 -7 77
-57 53z"/>
<path d="M917 1553 c-11 -11 -8 -121 4 -128 18 -12 58 4 75 30 24 36 11 73
-31 91 -40 16 -39 16 -48 7z"/>
</g>
</svg>
